<svg width="77" height="76" viewBox="0 0 77 76" fill="none" xmlns="http://www.w3.org/2000/svg">
<path d="M30.3197 42.4227V36.9187C30.3197 35.2867 29.6957 34.4387 28.3357 34.4387C27.4237 34.4387 26.5597 34.9347 25.2157 36.0227C25.0077 34.9827 24.3997 34.4387 23.3117 34.4387C22.4157 34.4387 21.5677 34.9187 20.2717 35.9587V34.3587L16.1597 35.7987L17.0717 36.5827V42.4227H16.2717V42.6787H20.9117V42.4227H20.2717V36.1507C20.5757 36.0067 20.8957 35.9427 21.2157 35.9427C21.9037 35.9427 22.0957 36.3587 22.0957 37.6067V42.4227H21.4557V42.6787H25.9357V42.4227H25.2957V36.9187C25.2957 36.6467 25.2797 36.4067 25.2477 36.1827C25.5677 36.0227 25.9037 35.9427 26.2397 35.9427C26.9277 35.9427 27.1197 36.3587 27.1197 37.6067V42.4227H26.4797V42.6787H31.1197V42.4227H30.3197ZM39.1369 41.2227C38.9929 41.2547 38.8329 41.2707 38.6729 41.2707C37.6009 41.2707 36.4489 40.6787 35.5369 39.7827C37.4569 39.0627 38.4809 37.8947 38.4809 36.5667C38.4809 35.3987 37.4409 34.5187 35.9369 34.5187C33.3769 34.5187 31.8089 36.4547 31.8089 38.7907C31.8089 41.2707 33.6649 42.8387 35.9209 42.8387C37.4089 42.8387 38.4809 42.2627 39.1529 41.2387L39.1369 41.2227ZM34.4489 35.0787C35.1369 35.0787 36.0649 36.2627 36.0649 37.6547C36.0649 38.4707 35.8889 39.1107 35.4409 39.6867C34.4809 38.6947 33.7929 37.3507 33.7929 36.0227C33.7929 35.4307 34.0329 35.0787 34.4489 35.0787ZM48.7354 42.4227V36.9187C48.7354 35.2867 48.0314 34.4387 46.6714 34.4387C45.5834 34.4387 44.6554 35.0627 43.6154 35.9587V34.3587L39.5034 35.7987L40.4154 36.5827V42.4227H39.6154V42.6787H44.2554V42.4227H43.6154V36.1827C43.9354 36.0387 44.2554 35.9427 44.5754 35.9427C45.2314 35.9427 45.5354 36.3587 45.5354 37.6067V42.4227H44.8954V42.6787H49.5354V42.4227H48.7354ZM58.947 42.4227V34.3747L54.835 35.8147L55.747 36.5987V41.1907C55.475 41.2867 55.187 41.3507 54.931 41.3507C54.131 41.3507 54.019 40.8227 54.019 39.4787V34.4547L49.907 35.8947L50.819 36.6787V40.1187C50.819 42.0227 51.443 42.8547 52.883 42.8547C53.779 42.8547 54.691 42.2147 55.747 41.4467V42.6787H59.747V42.4227H58.947Z" fill="white"/>
<path d="M28.4652 64.3996L24.9516 62.9523L24.8907 63.1002L25.6304 63.4049L23.1548 69.415L22.1262 69.5754L25.8063 71.0912L25.189 70.2529L27.6646 64.2428L28.4043 64.5475L28.4652 64.3996Z" fill="white"/>
<path d="M19.2826 59.4126L17.3821 62.28C16.8186 63.1302 16.8925 63.8151 17.601 64.2847C18.1679 64.6603 18.8668 64.6557 19.7179 64.548L19.1655 65.3815L21.8049 66.0512L21.6005 65.3279L23.617 62.2855L24.0337 62.5617L24.1221 62.4283L21.7049 60.8262L21.6165 60.9595L21.9499 61.1805L19.7953 64.4313C19.5789 64.3958 19.379 64.3354 19.2123 64.2249C18.8705 63.9984 18.8558 63.6767 19.2867 63.0265L20.9497 60.5176L21.2831 60.7386L21.3715 60.6052L18.9542 59.003L18.8658 59.1364L19.2826 59.4126Z" fill="white"/>
<path d="M11.8376 62.0984C12.8201 63.0532 14.0743 63.2262 15.4425 61.9761L15.8799 62.4012L15.9914 62.2864L15.5611 61.8683L15.6796 61.7464L18.753 58.5837L19.1115 58.9321L19.223 58.8174L16.8205 56.4828L16.709 56.5975L17.3186 57.1899L14.1268 60.4745L13.2017 59.5755L13.0902 59.6902L14.0153 60.5892L13.0396 61.5933C12.5936 62.0523 12.3421 62.268 12.2141 62.2133C12.086 62.1585 12.2119 61.5698 12.3036 61.0593L12.545 59.6485L12.5379 59.6416L10.9853 60.8519C11.1612 61.2878 11.4934 61.7639 11.8376 62.0984Z" fill="white"/>
<path d="M14.6228 53.2651C13.5282 51.7121 12.0361 51.6261 10.8427 52.4672C9.55945 53.3717 9.42767 54.9205 10.3783 56.2691C11.3174 57.6015 12.8944 57.8601 14.0632 57.0363C15.3792 56.1087 15.4524 54.4421 14.6228 53.2651ZM13.6833 52.5571C14.1557 53.2273 12.6921 56.3755 11.8911 56.9401C11.6377 57.1187 11.4042 57.0998 11.2602 56.8955C10.7532 56.1762 12.3436 52.9997 13.0302 52.5158C13.3081 52.3199 13.5277 52.3364 13.6833 52.5571Z" fill="white"/>
<path d="M6.61355 48.8837C6.80086 49.3039 7.4948 49.7061 8.41191 49.9214L7.27024 50.4304L9.1022 52.4274L9.31764 51.7073L12.6331 50.2292L12.8367 50.6859L12.9828 50.6207L11.6594 47.6524L11.5133 47.7175L11.8187 48.4025L8.51238 49.8766C8.31506 49.5813 8.36115 49.0462 8.988 47.628L8.98393 47.6189L6.56358 48.698C6.56974 48.7609 6.58504 48.8198 6.61355 48.8837Z" fill="white"/>
<path d="M9.23799 37.6759L5.86537 38.3534C4.86535 38.5543 4.42255 39.041 4.58996 39.8744C4.70222 40.4332 5.11251 40.9016 5.94463 41.5912C5.33297 41.8467 5.07447 42.2862 5.2084 42.9529C5.31869 43.5019 5.7172 43.9624 6.514 44.6286L5.53359 44.8255L6.92214 47.1679L7.29028 46.5126L10.8688 45.7937L10.9673 46.2839L11.1241 46.2524L10.553 43.4092L10.3961 43.4407L10.4749 43.8329L6.63165 44.6049C6.506 44.4364 6.42739 44.2482 6.388 44.0521C6.30331 43.6305 6.53458 43.4616 7.2993 43.308L10.2503 42.7152L10.3291 43.1073L10.486 43.0758L9.93452 40.3307L9.77765 40.3622L9.85643 40.7544L6.48381 41.4319C6.31714 41.4654 6.17205 41.5047 6.03873 41.5519C5.9013 41.3755 5.81092 41.1795 5.76956 40.9736C5.68487 40.552 5.91614 40.3831 6.68086 40.2295L9.6319 39.6367L9.71069 40.0289L9.86755 39.9973L9.29638 37.1541L9.13952 37.1857L9.23799 37.6759Z" fill="white"/>
<path d="M9.98699 34.1266L7.21838 34.0387C5.76911 33.9927 5.02822 34.6395 4.98825 35.8989C4.95653 36.8984 5.34285 37.651 6.0809 38.3548L6.13246 38.3064C5.88338 37.9583 5.77327 37.6447 5.78755 37.1949C5.81165 36.4353 6.37533 36.013 7.47478 36.0479C7.60203 37.7127 8.18064 38.7116 9.10018 38.7408C9.72986 38.7608 10.1136 38.3327 10.1343 37.683C10.1517 37.1333 9.89864 36.595 9.51375 36.1126L10.0835 36.1307L10.1628 33.6319L10.0028 33.6268L9.98699 34.1266ZM9.39651 36.339C9.38382 36.7388 9.12761 36.9307 8.65784 36.9158C8.12811 36.899 7.7556 36.6571 7.60471 36.052L9.37382 36.1081C9.39096 36.1987 9.39842 36.279 9.39651 36.339Z" fill="white"/>
<path d="M10.4263 28.9204C10.4612 29.1329 10.4538 29.3054 10.4064 29.5202C10.2467 30.2428 9.76856 30.4137 8.63589 30.1634L6.36077 29.6606L6.665 28.2839L6.50877 28.2493L6.20454 29.6261L4.22235 29.1881L5.75334 32.3632L5.7631 32.3654L5.92924 31.6135L8.70235 32.2263C9.97173 32.5068 10.7566 32.1989 11.0134 31.0369C11.2119 30.1386 10.9344 29.4014 10.4382 28.9128L10.4263 28.9204Z" fill="white"/>
<path d="M7.3124 25.018C7.5794 24.3601 7.31285 23.8202 6.69203 23.5683C6.08047 23.3201 5.51308 23.5215 5.24608 24.1794C4.97909 24.8372 5.24563 25.3771 5.85719 25.6253C6.47801 25.8773 7.0454 25.6758 7.3124 25.018ZM11.7241 28.4273L12.8523 25.6475L12.7041 25.5873L12.516 26.0506L7.84597 24.1553L7.71345 26.8751L8.38184 26.5312L11.7639 27.9038L11.5759 28.3671L11.7241 28.4273Z" fill="white"/>
<path d="M15.1427 22.0672C16.17 20.4689 15.6887 19.054 14.4605 18.2645C13.1398 17.4156 11.6551 17.8759 10.763 19.2639C9.88161 20.6351 10.235 22.1937 11.4379 22.9669C12.7923 23.8374 14.364 23.2786 15.1427 22.0672ZM15.4454 20.9304C15.002 21.6202 11.5346 21.4479 10.7102 20.918C10.4494 20.7504 10.3791 20.5269 10.5143 20.3166C10.9901 19.5763 14.5315 19.8555 15.2381 20.3097C15.5241 20.4936 15.5914 20.7033 15.4454 20.9304Z" fill="white"/>
<path d="M20.8027 15.4466L18.3658 13.0186C17.6432 12.2986 16.9572 12.2363 16.3573 12.8384C15.8773 13.3201 15.7442 14.0062 15.6822 14.862L14.9738 14.1561L13.7974 16.612L14.5468 16.554L17.1325 19.1302L16.7795 19.4844L16.8929 19.5974L18.9397 17.543L18.8264 17.4301L18.5441 17.7134L15.7813 14.9608C15.8587 14.7556 15.9574 14.5715 16.0986 14.4299C16.3879 14.1394 16.7062 14.1883 17.2588 14.7389L19.3911 16.8634L19.1087 17.1467L19.2221 17.2596L21.2689 15.2053L21.1556 15.0924L20.8027 15.4466Z" fill="white"/>
<path d="M29.5676 3.85873L26.1695 4.81458L27.1724 5.09341L28.9325 11.3506L28.1624 11.5672L28.2057 11.7212L31.3921 10.8249C33.9334 10.1101 35.1644 8.39262 34.5226 6.11116C33.9052 3.91634 32.0993 3.14658 29.5676 3.85873ZM31.2043 10.7115L31.0503 10.7549L29.1873 4.13189L29.428 4.0642C30.6891 3.70948 31.7182 4.63539 32.3112 6.74358C32.9124 8.88064 32.4461 10.3622 31.2043 10.7115Z" fill="white"/>
<path d="M39.6826 9.00221C39.5938 9.02695 39.4945 9.04224 39.3946 9.04755C38.7255 9.08309 37.9869 8.7518 37.388 8.22283C38.5625 7.70981 39.1628 6.94688 39.1188 6.11805C39.0801 5.38908 38.4018 4.87433 37.4631 4.9242C35.8654 5.00907 34.951 6.26935 35.0284 7.7273C35.1106 9.27512 36.321 10.1922 37.729 10.1174C38.6577 10.0681 39.3077 9.67304 39.6931 9.01166L39.6826 9.00221ZM36.553 5.32304C36.9824 5.30023 37.6009 6.00842 37.647 6.87719C37.6741 7.38648 37.5854 7.79175 37.3249 8.1661C36.6929 7.5788 36.2189 6.76279 36.1749 5.93396C36.1553 5.56448 36.2934 5.33683 36.553 5.32304Z" fill="white"/>
<path d="M42.3516 10.4666C43.5708 10.6293 44.6962 10.1338 44.8338 9.10296C44.9158 8.48841 44.6251 7.94518 43.9901 7.48715L43.2996 6.99145C42.7558 6.60612 42.6303 6.33715 42.6766 5.99023C42.7136 5.71269 42.9648 5.49399 43.4009 5.5522C43.4505 5.55881 43.5185 5.57798 43.5655 5.60442L44.497 7.39338L44.5069 7.3947L45.1025 5.88018C44.6406 5.63694 44.1397 5.45911 43.4954 5.37313C42.1771 5.19718 41.277 5.7429 41.1434 6.74403C41.0429 7.49735 41.3772 8.01613 42.1417 8.56206L42.7496 8.9963C43.1368 9.26993 43.2927 9.46225 43.253 9.75961C43.1988 10.166 42.871 10.3543 42.4349 10.2961C42.3159 10.2802 42.2478 10.261 42.1144 10.2029L41.1049 8.39342L41.095 8.3921L40.572 9.96677C41.2381 10.2675 41.8857 10.4044 42.3516 10.4666Z" fill="white"/>
<path d="M48.4331 6.32223C49.1112 6.53255 49.6265 6.22124 49.825 5.58131C50.0205 4.95093 49.7718 4.40264 49.0936 4.19232C48.4155 3.982 47.9002 4.29331 47.7046 4.92369C47.5062 5.56362 47.7549 6.11191 48.4331 6.32223ZM45.4096 11.0069L48.275 11.8956L48.3224 11.7427L47.8448 11.5946L49.3378 6.78083L46.6166 6.87913L47.0158 7.51599L45.9346 11.0022L45.457 10.8541L45.4096 11.0069Z" fill="white"/>
<path d="M56.9753 9.95608C56.3 9.95557 55.6828 9.95141 55.07 9.96072C54.8603 9.60445 54.5158 9.29102 54.0451 9.04739C52.7574 8.38084 51.6069 8.77622 51.1012 9.75311C50.8024 10.3304 50.8032 10.9163 51.0465 11.4251C50.2467 11.6867 49.8218 12.0073 49.569 12.4957C49.4035 12.8154 49.3544 13.1278 49.4486 13.4243C49.0021 13.3733 48.6649 13.5028 48.5269 13.7692C48.2373 14.3287 48.7389 14.9261 50.0443 15.6019C51.6784 16.4477 53.1198 16.3605 53.6438 15.3481C54.0438 14.5755 53.6498 13.9662 52.6196 13.4329L51.5983 12.9043C50.8257 12.5044 50.7434 11.9889 51.0943 11.5286C51.3211 11.9388 51.6962 12.3019 52.1935 12.5593C53.4191 13.1936 54.5469 12.8203 55.0663 11.8168C55.3697 11.2307 55.4005 10.6273 55.144 10.1004C55.4977 10.3961 55.9236 10.9656 56.2123 11.4303L56.2257 11.426L56.9796 9.96956L56.9753 9.95608ZM52.9751 12.6373C52.7087 12.4994 52.5183 12.0405 52.4951 10.8237C52.48 9.98262 52.5277 9.45552 52.6885 9.14469C52.8173 8.89603 53.0507 8.83668 53.2372 8.93321C53.5125 9.07572 53.667 9.53855 53.7083 10.7423C53.7365 11.6014 53.6619 12.137 53.5148 12.4212C53.3815 12.6788 53.1794 12.743 52.9751 12.6373ZM50.4502 14.4044L51.4093 14.9009C52.1109 15.264 52.3133 15.5039 52.2076 15.7082C52.0375 16.0368 51.367 16.005 50.6832 15.6511C49.7774 15.1822 49.2646 14.4325 49.479 13.4963C49.613 13.8247 49.9262 14.1332 50.4502 14.4044Z" fill="white"/>
<path d="M58.7699 18.5836L60.9359 15.9111C61.5781 15.1187 61.57 14.4299 60.9096 13.8947C60.3813 13.4666 59.6852 13.4044 58.8276 13.4302L59.4572 12.6533L56.894 11.7343L57.0283 12.4739L54.7301 15.3095L54.3416 14.9947L54.2409 15.119L56.4939 16.945L56.5946 16.8206L56.2839 16.5688L58.7395 13.5389C58.9515 13.5949 59.1447 13.6742 59.3 13.8002C59.6186 14.0583 59.6025 14.3799 59.1113 14.9859L57.2161 17.3244L56.9054 17.0725L56.8046 17.1968L59.0576 19.0227L59.1584 18.8984L58.7699 18.5836Z" fill="white"/>
<path d="M71.1942 26.1181L69.8957 22.8356L69.7209 23.8618L63.6766 26.2528L63.3824 25.5089L63.2336 25.5677L64.4511 28.6457C65.4223 31.1006 67.2566 32.1493 69.4605 31.2775C71.5806 30.4389 72.1616 28.5637 71.1942 26.1181ZM64.5447 28.4473L64.4859 28.2985L70.8835 25.7678L70.9755 26.0002C71.4574 27.2184 70.6416 28.3369 68.6051 29.1425C66.5408 29.9591 65.0193 29.6469 64.5447 28.4473Z" fill="white"/>
<path d="M67.1127 36.706C67.079 36.6202 67.0536 36.523 67.0381 36.4242C66.9343 35.7623 67.1883 34.9937 67.6532 34.3438C68.2837 35.4596 69.104 35.9787 69.924 35.8501C70.6452 35.737 71.0879 35.0097 70.9422 34.081C70.6943 32.5004 69.3471 31.7197 67.9047 31.9459C66.3734 32.186 65.585 33.4838 65.8035 34.8768C65.9475 35.7956 66.407 36.4017 67.1043 36.7175L67.1127 36.706ZM70.4524 33.2165C70.519 33.6413 69.8778 34.3289 69.0183 34.4637C68.5144 34.5427 68.1022 34.496 67.7032 34.2752C68.2227 33.5864 68.986 33.0314 69.806 32.9028C70.1715 32.8455 70.4121 32.9596 70.4524 33.2165Z" fill="white"/>
<path d="M71.0078 42.0146C71.0361 41.4253 70.7162 40.7892 70.2021 40.234L71.191 40.2814L70.415 37.6713L69.8983 38.2172L63.7554 37.9228L63.7793 37.4234L63.6195 37.4157L63.4615 40.7119L63.6214 40.7196L63.6596 39.9205L66.2567 40.0449C66.0206 40.374 65.8617 40.7669 65.8396 41.2263C65.775 42.5748 66.7974 43.5949 68.5554 43.6791C70.1036 43.7533 70.9595 43.0235 71.0078 42.0146ZM66.2532 40.5353C66.2613 40.3655 66.3199 40.1881 66.4265 40.0531L70.0623 40.2273C70.1155 40.37 70.1493 40.5018 70.1421 40.6516C70.11 41.3208 69.4269 41.5784 68.0884 41.5143C66.8898 41.4569 66.2283 41.0547 66.2532 40.5353Z" fill="white"/>
<path d="M64.5807 47.9957L67.2636 48.6845C68.6681 49.0451 69.5321 48.5752 69.8454 47.3548C70.0941 46.3862 69.881 45.5675 69.314 44.7199L69.2531 44.7559C69.4204 45.1499 69.4596 45.48 69.3477 45.9158C69.1586 46.6519 68.5165 46.9413 67.4511 46.6678C67.6895 45.0152 67.3424 43.9143 66.4513 43.6855C65.8411 43.5288 65.3733 43.863 65.2117 44.4925C65.0749 45.0253 65.2046 45.6058 65.4752 46.1605L64.9231 46.0187L64.3013 48.4402L64.4563 48.48L64.5807 47.9957ZM65.6389 45.9651C65.7384 45.5776 66.0303 45.4461 66.4855 45.563C66.9988 45.6948 67.3097 46.012 67.3251 46.6355L65.6108 46.1953C65.6138 46.1031 65.624 46.0232 65.6389 45.9651Z" fill="white"/>
<path d="M66.8264 54.7052C67.0211 54.2885 66.8704 53.5006 66.4322 52.6667L67.5647 53.1959L67.8734 50.5034L67.1881 50.8124L63.8994 49.2759L64.111 48.8229L63.9661 48.7552L62.5904 51.6996L62.7353 51.7674L63.0528 51.0879L66.3325 52.6202C66.2387 52.9627 65.8042 53.2784 64.3221 53.7339L64.3179 53.743L66.7188 54.8647C66.7623 54.8188 66.7967 54.7687 66.8264 54.7052Z" fill="white"/>
<path d="M60.002 57.1427C60.0518 56.9331 60.1252 56.7769 60.252 56.5971C60.6783 55.9922 61.1853 56.0193 62.1335 56.6876L64.0379 58.0299L63.2256 59.1824L63.3564 59.2746L64.1687 58.1221L65.8279 59.2916L65.642 55.7716L65.6338 55.7658L65.1902 56.3952L62.8689 54.759C61.8063 54.0101 60.9633 53.9909 60.2778 54.9636C59.7477 55.7156 59.719 56.5028 59.988 57.1451L60.002 57.1427Z" fill="white"/>
<path d="M52.4748 62.9927L54.7834 65.543C55.4679 66.2992 56.1127 66.4304 56.7429 65.86C57.1655 65.4775 57.3578 64.8853 57.5242 63.8174C58.0568 64.2121 58.5667 64.2091 59.0708 63.7528C59.486 63.3769 59.6776 62.7989 59.8419 61.7734L60.513 62.5147L61.8143 60.1228L61.0629 60.142L58.6134 57.436L58.9841 57.1005L58.8767 56.9819L56.7267 58.9281L56.8341 59.0467L57.1306 58.7782L59.7613 61.6844C59.6809 61.8786 59.5594 62.0425 59.4112 62.1767C59.0924 62.4653 58.8289 62.3531 58.3055 61.7748L56.2855 59.5433L56.582 59.2749L56.4746 59.1562L54.3988 61.0353L54.5062 61.1539L54.8027 60.8855L57.1113 63.4358C57.2254 63.5618 57.3335 63.6663 57.4423 63.7567C57.3611 63.9651 57.239 64.1431 57.0833 64.284C56.7645 64.5726 56.501 64.4603 55.9776 63.8821L53.9576 61.6505L54.2541 61.3821L54.1467 61.2635L51.9968 63.2097L52.1042 63.3283L52.4748 62.9927Z" fill="white"/>
<path d="M49.2826 64.8911C49.3517 64.83 49.4343 64.7728 49.5218 64.7244C50.1079 64.3998 50.9171 64.3747 51.687 64.5885C50.8552 65.5635 50.6489 66.5121 51.051 67.2383C51.4046 67.8769 52.2397 68.0432 53.0621 67.5878C54.4618 66.8127 54.733 65.2794 54.0257 64.0022C53.2748 62.6462 51.7853 62.3508 50.5518 63.0338C49.7382 63.4844 49.3264 64.1239 49.269 64.8872L49.2826 64.8911ZM53.7061 66.8311C53.3299 67.0394 52.464 66.673 52.0426 65.9119C51.7955 65.4657 51.698 65.0625 51.7686 64.6119C52.5938 64.8637 53.3769 65.3902 53.779 66.1163C53.9582 66.44 53.9336 66.7051 53.7061 66.8311Z" fill="white"/>
<path d="M42.7681 66.089L43.7921 69.373C44.0958 70.3468 44.6736 70.7218 45.4851 70.4687C46.1342 70.2663 46.5718 69.7213 47.0257 68.9932L47.3234 69.9479L49.5089 68.3236L48.8189 68.0255L47.7323 64.541L48.2097 64.3922L48.162 64.2394L45.3935 65.1027L45.4411 65.2555L45.823 65.1364L46.984 68.8596C46.8199 69.005 46.6468 69.1219 46.4559 69.1814C46.0644 69.3034 45.8057 69.1118 45.5735 68.3672L44.6774 65.4936L45.0593 65.3745L45.0116 65.2218L42.2431 66.0851L42.2908 66.2378L42.7681 66.089Z" fill="white"/>
<path d="M38.2197 67.1436C38.41 67.0425 38.5758 66.9944 38.7945 66.9708C39.5302 66.8913 39.8449 67.2898 39.9695 68.4431L40.2199 70.7596L38.8181 70.9111L38.8353 71.0702L40.2371 70.9186L40.4553 72.9369L42.9749 70.4718L42.9739 70.4619L42.2083 70.5446L41.9031 67.7211C41.7634 66.4286 41.2209 65.7832 40.0378 65.911C39.1231 66.0099 38.5132 66.5084 38.2087 67.1347L38.2197 67.1436Z" fill="white"/>
</svg>
