<svg width="55" height="55" viewBox="0 0 55 55" fill="none" xmlns="http://www.w3.org/2000/svg">
<g clip-path="url(#clip0_0_1)">
<path d="M33.5 33.7807C32.4233 33.7807 31.46 34.2057 30.7233 34.8715L20.6225 28.9923C20.6933 28.6665 20.75 28.3407 20.75 28.0007C20.75 27.6607 20.6933 27.3348 20.6225 27.009L30.61 21.1865C31.375 21.8948 32.3808 22.334 33.5 22.334C35.8517 22.334 37.75 20.4357 37.75 18.084C37.75 15.7323 35.8517 13.834 33.5 13.834C31.1483 13.834 29.25 15.7323 29.25 18.084C29.25 18.424 29.3067 18.7498 29.3775 19.0757L19.39 24.8982C18.625 24.1898 17.6192 23.7507 16.5 23.7507C14.1483 23.7507 12.25 25.649 12.25 28.0007C12.25 30.3523 14.1483 32.2507 16.5 32.2507C17.6192 32.2507 18.625 31.8115 19.39 31.1032L29.4767 36.9965C29.4058 37.294 29.3633 37.6057 29.3633 37.9173C29.3633 40.1982 31.2192 42.054 33.5 42.054C35.7808 42.054 37.6367 40.1982 37.6367 37.9173C37.6367 35.6365 35.7808 33.7807 33.5 33.7807Z" fill="white"/>
</g>
<circle cx="27.5" cy="27.5" r="26" stroke="white" stroke-width="3"/>
<defs>
<clipPath id="clip0_0_1">
<rect width="34" height="34" fill="white" transform="translate(8 11)"/>
</clipPath>
</defs>
</svg>